<svg id="visual" viewBox="0 0 1600 900" width="1600" height="900" xmlns="http://www.w3.org/2000/svg" xmlns:xlink="http://www.w3.org/1999/xlink" version="1.1"><path d="M0 334L24.2 301C48.3 268 96.7 202 145.2 187C193.7 172 242.3 208 290.8 227.5C339.3 247 387.7 250 436.2 239.5C484.7 229 533.3 205 581.8 223C630.3 241 678.7 301 727.2 308.5C775.7 316 824.3 271 872.8 236.5C921.3 202 969.7 178 1018.2 182.5C1066.7 187 1115.3 220 1163.8 217C1212.3 214 1260.7 175 1309.2 175C1357.7 175 1406.3 214 1454.8 265C1503.3 316 1551.7 379 1575.8 410.5L1600 442L1600 0L1575.8 0C1551.7 0 1503.3 0 1454.8 0C1406.3 0 1357.7 0 1309.2 0C1260.7 0 1212.3 0 1163.8 0C1115.3 0 1066.7 0 1018.2 0C969.7 0 921.3 0 872.8 0C824.3 0 775.7 0 727.2 0C678.7 0 630.3 0 581.8 0C533.3 0 484.7 0 436.2 0C387.7 0 339.3 0 290.8 0C242.3 0 193.7 0 145.2 0C96.7 0 48.3 0 24.2 0L0 0Z" fill="#004cbb"></path><path d="M0 469L24.2 437.5C48.3 406 96.7 343 145.2 331C193.7 319 242.3 358 290.8 364C339.3 370 387.7 343 436.2 319C484.7 295 533.3 274 581.8 304C630.3 334 678.7 415 727.2 427C775.7 439 824.3 382 872.8 350.5C921.3 319 969.7 313 1018.2 326.5C1066.7 340 1115.3 373 1163.8 361C1212.3 349 1260.7 292 1309.2 278.5C1357.7 265 1406.3 295 1454.8 353.5C1503.3 412 1551.7 499 1575.8 542.5L1600 586L1600 440L1575.8 408.5C1551.7 377 1503.3 314 1454.8 263C1406.3 212 1357.7 173 1309.2 173C1260.7 173 1212.3 212 1163.8 215C1115.3 218 1066.7 185 1018.2 180.5C969.7 176 921.3 200 872.8 234.5C824.3 269 775.7 314 727.2 306.5C678.7 299 630.3 239 581.8 221C533.3 203 484.7 227 436.2 237.5C387.7 248 339.3 245 290.8 225.5C242.3 206 193.7 170 145.2 185C96.7 200 48.3 266 24.2 299L0 332Z" fill="#2573ff"></path><path d="M0 613L24.2 614.5C48.3 616 96.7 619 145.2 629.5C193.7 640 242.3 658 290.8 667C339.3 676 387.7 676 436.2 671.5C484.7 667 533.3 658 581.8 652C630.3 646 678.7 643 727.2 631C775.7 619 824.3 598 872.8 595C921.3 592 969.7 607 1018.2 610C1066.7 613 1115.3 604 1163.8 601C1212.3 598 1260.7 601 1309.2 608.5C1357.7 616 1406.3 628 1454.8 649C1503.3 670 1551.7 700 1575.8 715L1600 730L1600 584L1575.8 540.5C1551.7 497 1503.3 410 1454.8 351.5C1406.3 293 1357.7 263 1309.2 276.5C1260.7 290 1212.3 347 1163.8 359C1115.3 371 1066.7 338 1018.2 324.5C969.7 311 921.3 317 872.8 348.5C824.3 380 775.7 437 727.2 425C678.7 413 630.3 332 581.8 302C533.3 272 484.7 293 436.2 317C387.7 341 339.3 368 290.8 362C242.3 356 193.7 317 145.2 329C96.7 341 48.3 404 24.2 435.5L0 467Z" fill="#6198ff"></path><path d="M0 793L24.2 782.5C48.3 772 96.7 751 145.2 746.5C193.7 742 242.3 754 290.8 766C339.3 778 387.7 790 436.2 785.5C484.7 781 533.3 760 581.8 761.5C630.3 763 678.7 787 727.2 794.5C775.7 802 824.3 793 872.8 788.5C921.3 784 969.7 784 1018.2 775C1066.7 766 1115.3 748 1163.8 743.5C1212.3 739 1260.7 748 1309.2 749.5C1357.7 751 1406.3 745 1454.8 755.5C1503.3 766 1551.7 793 1575.8 806.5L1600 820L1600 728L1575.8 713C1551.7 698 1503.3 668 1454.8 647C1406.3 626 1357.7 614 1309.2 606.5C1260.7 599 1212.3 596 1163.8 599C1115.3 602 1066.7 611 1018.2 608C969.7 605 921.3 590 872.8 593C824.3 596 775.7 617 727.2 629C678.7 641 630.3 644 581.8 650C533.3 656 484.7 665 436.2 669.5C387.7 674 339.3 674 290.8 665C242.3 656 193.7 638 145.2 627.5C96.7 617 48.3 614 24.2 612.5L0 611Z" fill="#2573ff"></path><path d="M0 901L24.2 901C48.3 901 96.7 901 145.2 901C193.7 901 242.3 901 290.8 901C339.3 901 387.7 901 436.2 901C484.7 901 533.3 901 581.8 901C630.3 901 678.7 901 727.2 901C775.7 901 824.3 901 872.8 901C921.3 901 969.7 901 1018.2 901C1066.7 901 1115.3 901 1163.8 901C1212.3 901 1260.7 901 1309.2 901C1357.7 901 1406.3 901 1454.8 901C1503.3 901 1551.7 901 1575.8 901L1600 901L1600 818L1575.8 804.5C1551.7 791 1503.3 764 1454.8 753.5C1406.3 743 1357.7 749 1309.2 747.5C1260.7 746 1212.3 737 1163.8 741.5C1115.3 746 1066.7 764 1018.2 773C969.7 782 921.3 782 872.8 786.5C824.3 791 775.7 800 727.2 792.5C678.7 785 630.3 761 581.8 759.5C533.3 758 484.7 779 436.2 783.5C387.7 788 339.3 776 290.8 764C242.3 752 193.7 740 145.2 744.5C96.7 749 48.3 770 24.2 780.5L0 791Z" fill="#004cbb"></path></svg>