<svg id="visual" viewBox="0 0 1600 900" width="1600" height="900" xmlns="http://www.w3.org/2000/svg" xmlns:xlink="http://www.w3.org/1999/xlink" version="1.1"><path d="M0 199L24.2 208C48.3 217 96.7 235 145.2 250C193.7 265 242.3 277 290.8 277C339.3 277 387.7 265 436.2 254.5C484.7 244 533.3 235 581.8 218.5C630.3 202 678.7 178 727.2 209.5C775.7 241 824.3 328 872.8 334C921.3 340 969.7 265 1018.2 230.5C1066.7 196 1115.3 202 1163.8 218.5C1212.3 235 1260.7 262 1309.2 274C1357.7 286 1406.3 283 1454.8 298C1503.3 313 1551.7 346 1575.8 362.5L1600 379L1600 0L1575.8 0C1551.7 0 1503.3 0 1454.8 0C1406.3 0 1357.7 0 1309.2 0C1260.7 0 1212.3 0 1163.8 0C1115.3 0 1066.7 0 1018.2 0C969.7 0 921.3 0 872.8 0C824.3 0 775.7 0 727.2 0C678.7 0 630.3 0 581.8 0C533.3 0 484.7 0 436.2 0C387.7 0 339.3 0 290.8 0C242.3 0 193.7 0 145.2 0C96.7 0 48.3 0 24.2 0L0 0Z" fill="#6198ff"></path><path d="M0 253L24.2 278.5C48.3 304 96.7 355 145.2 377.5C193.7 400 242.3 394 290.8 382C339.3 370 387.7 352 436.2 334C484.7 316 533.3 298 581.8 292C630.3 286 678.7 292 727.2 323.5C775.7 355 824.3 412 872.8 406C921.3 400 969.7 331 1018.2 298C1066.7 265 1115.3 268 1163.8 284.5C1212.3 301 1260.7 331 1309.2 343C1357.7 355 1406.3 349 1454.8 362.5C1503.3 376 1551.7 409 1575.8 425.5L1600 442L1600 377L1575.8 360.5C1551.7 344 1503.3 311 1454.8 296C1406.3 281 1357.7 284 1309.2 272C1260.7 260 1212.3 233 1163.8 216.5C1115.3 200 1066.7 194 1018.2 228.5C969.7 263 921.3 338 872.8 332C824.3 326 775.7 239 727.2 207.5C678.7 176 630.3 200 581.8 216.5C533.3 233 484.7 242 436.2 252.5C387.7 263 339.3 275 290.8 275C242.3 275 193.7 263 145.2 248C96.7 233 48.3 215 24.2 206L0 197Z" fill="#005fee"></path><path d="M0 406L24.2 427C48.3 448 96.7 490 145.2 515.5C193.7 541 242.3 550 290.8 536.5C339.3 523 387.7 487 436.2 466C484.7 445 533.3 439 581.8 427C630.3 415 678.7 397 727.2 419.5C775.7 442 824.3 505 872.8 511C921.3 517 969.7 466 1018.2 445C1066.7 424 1115.3 433 1163.8 460C1212.3 487 1260.7 532 1309.2 548.5C1357.7 565 1406.3 553 1454.8 560.5C1503.3 568 1551.7 595 1575.8 608.5L1600 622L1600 440L1575.8 423.5C1551.7 407 1503.3 374 1454.8 360.5C1406.3 347 1357.7 353 1309.2 341C1260.7 329 1212.3 299 1163.8 282.5C1115.3 266 1066.7 263 1018.2 296C969.7 329 921.3 398 872.8 404C824.3 410 775.7 353 727.2 321.5C678.7 290 630.3 284 581.8 290C533.3 296 484.7 314 436.2 332C387.7 350 339.3 368 290.8 380C242.3 392 193.7 398 145.2 375.5C96.7 353 48.3 302 24.2 276.5L0 251Z" fill="#004cbb"></path><path d="M0 739L24.2 740.5C48.3 742 96.7 745 145.2 760C193.7 775 242.3 802 290.8 811C339.3 820 387.7 811 436.2 799C484.7 787 533.3 772 581.8 758.5C630.3 745 678.7 733 727.2 742C775.7 751 824.3 781 872.8 793C921.3 805 969.7 799 1018.2 791.5C1066.7 784 1115.3 775 1163.8 763C1212.3 751 1260.7 736 1309.2 737.5C1357.7 739 1406.3 757 1454.8 763C1503.3 769 1551.7 763 1575.8 760L1600 757L1600 620L1575.8 606.5C1551.7 593 1503.3 566 1454.8 558.5C1406.3 551 1357.7 563 1309.2 546.5C1260.7 530 1212.3 485 1163.8 458C1115.3 431 1066.7 422 1018.2 443C969.7 464 921.3 515 872.8 509C824.3 503 775.7 440 727.2 417.5C678.7 395 630.3 413 581.8 425C533.3 437 484.7 443 436.2 464C387.7 485 339.3 521 290.8 534.5C242.3 548 193.7 539 145.2 513.5C96.7 488 48.3 446 24.2 425L0 404Z" fill="#005fee"></path><path d="M0 901L24.2 901C48.3 901 96.7 901 145.2 901C193.7 901 242.3 901 290.8 901C339.3 901 387.7 901 436.2 901C484.7 901 533.3 901 581.8 901C630.3 901 678.7 901 727.2 901C775.7 901 824.3 901 872.8 901C921.3 901 969.7 901 1018.2 901C1066.7 901 1115.3 901 1163.8 901C1212.3 901 1260.7 901 1309.2 901C1357.7 901 1406.3 901 1454.8 901C1503.3 901 1551.7 901 1575.8 901L1600 901L1600 755L1575.8 758C1551.7 761 1503.3 767 1454.8 761C1406.3 755 1357.7 737 1309.2 735.5C1260.7 734 1212.3 749 1163.8 761C1115.3 773 1066.7 782 1018.2 789.5C969.7 797 921.3 803 872.8 791C824.3 779 775.7 749 727.2 740C678.7 731 630.3 743 581.8 756.5C533.3 770 484.7 785 436.2 797C387.7 809 339.3 818 290.8 809C242.3 800 193.7 773 145.2 758C96.7 743 48.3 740 24.2 738.5L0 737Z" fill="#6198ff"></path></svg>