<svg id="visual" viewBox="0 0 1600 900" width="1600" height="900" xmlns="http://www.w3.org/2000/svg" xmlns:xlink="http://www.w3.org/1999/xlink" version="1.1"><path d="M0 163L24.2 203.5C48.3 244 96.7 325 145.2 359.5C193.7 394 242.3 382 290.8 358C339.3 334 387.7 298 436.2 314.5C484.7 331 533.3 400 581.8 397C630.3 394 678.7 319 727.2 302.5C775.7 286 824.3 328 872.8 350.5C921.3 373 969.7 376 1018.2 373C1066.7 370 1115.3 361 1163.8 319C1212.3 277 1260.7 202 1309.2 182.5C1357.7 163 1406.3 199 1454.8 200.5C1503.3 202 1551.7 169 1575.8 152.5L1600 136L1600 0L1575.8 0C1551.7 0 1503.3 0 1454.8 0C1406.3 0 1357.7 0 1309.2 0C1260.7 0 1212.3 0 1163.8 0C1115.3 0 1066.7 0 1018.2 0C969.7 0 921.3 0 872.8 0C824.3 0 775.7 0 727.2 0C678.7 0 630.3 0 581.8 0C533.3 0 484.7 0 436.2 0C387.7 0 339.3 0 290.8 0C242.3 0 193.7 0 145.2 0C96.7 0 48.3 0 24.2 0L0 0Z" fill="#004cbb"></path><path d="M0 271L24.2 307C48.3 343 96.7 415 145.2 449.5C193.7 484 242.3 481 290.8 457C339.3 433 387.7 388 436.2 400C484.7 412 533.3 481 581.8 485.5C630.3 490 678.7 430 727.2 415C775.7 400 824.3 430 872.8 445C921.3 460 969.7 460 1018.2 455.5C1066.7 451 1115.3 442 1163.8 403C1212.3 364 1260.7 295 1309.2 283C1357.7 271 1406.3 316 1454.8 323.5C1503.3 331 1551.7 301 1575.8 286L1600 271L1600 134L1575.8 150.5C1551.7 167 1503.3 200 1454.8 198.5C1406.3 197 1357.7 161 1309.2 180.5C1260.7 200 1212.3 275 1163.8 317C1115.3 359 1066.7 368 1018.2 371C969.7 374 921.3 371 872.8 348.5C824.3 326 775.7 284 727.2 300.5C678.7 317 630.3 392 581.8 395C533.3 398 484.7 329 436.2 312.5C387.7 296 339.3 332 290.8 356C242.3 380 193.7 392 145.2 357.5C96.7 323 48.3 242 24.2 201.5L0 161Z" fill="#2573ff"></path><path d="M0 442L24.2 476.5C48.3 511 96.7 580 145.2 604C193.7 628 242.3 607 290.8 581.5C339.3 556 387.7 526 436.2 541C484.7 556 533.3 616 581.8 610C630.3 604 678.7 532 727.2 511C775.7 490 824.3 520 872.8 550C921.3 580 969.7 610 1018.2 608.5C1066.7 607 1115.3 574 1163.8 539.5C1212.3 505 1260.7 469 1309.2 466C1357.7 463 1406.3 493 1454.8 500.5C1503.3 508 1551.7 493 1575.8 485.5L1600 478L1600 269L1575.8 284C1551.7 299 1503.3 329 1454.8 321.5C1406.3 314 1357.7 269 1309.2 281C1260.7 293 1212.3 362 1163.8 401C1115.3 440 1066.7 449 1018.2 453.5C969.7 458 921.3 458 872.8 443C824.3 428 775.7 398 727.2 413C678.7 428 630.3 488 581.8 483.5C533.3 479 484.7 410 436.2 398C387.7 386 339.3 431 290.8 455C242.3 479 193.7 482 145.2 447.5C96.7 413 48.3 341 24.2 305L0 269Z" fill="#6198ff"></path><path d="M0 775L24.2 785.5C48.3 796 96.7 817 145.2 818.5C193.7 820 242.3 802 290.8 781C339.3 760 387.7 736 436.2 745C484.7 754 533.3 796 581.8 802C630.3 808 678.7 778 727.2 758.5C775.7 739 824.3 730 872.8 743.5C921.3 757 969.7 793 1018.2 794.5C1066.7 796 1115.3 763 1163.8 745C1212.3 727 1260.7 724 1309.2 736C1357.7 748 1406.3 775 1454.8 784C1503.3 793 1551.7 784 1575.8 779.5L1600 775L1600 476L1575.8 483.5C1551.7 491 1503.3 506 1454.8 498.5C1406.3 491 1357.7 461 1309.2 464C1260.7 467 1212.3 503 1163.8 537.5C1115.3 572 1066.7 605 1018.2 606.5C969.7 608 921.3 578 872.8 548C824.3 518 775.7 488 727.2 509C678.7 530 630.3 602 581.8 608C533.3 614 484.7 554 436.2 539C387.7 524 339.3 554 290.8 579.5C242.3 605 193.7 626 145.2 602C96.7 578 48.3 509 24.2 474.5L0 440Z" fill="#2573ff"></path><path d="M0 901L24.2 901C48.3 901 96.7 901 145.2 901C193.7 901 242.3 901 290.8 901C339.3 901 387.7 901 436.2 901C484.7 901 533.3 901 581.8 901C630.3 901 678.7 901 727.2 901C775.7 901 824.3 901 872.8 901C921.3 901 969.7 901 1018.2 901C1066.7 901 1115.3 901 1163.8 901C1212.3 901 1260.7 901 1309.2 901C1357.7 901 1406.3 901 1454.8 901C1503.3 901 1551.7 901 1575.8 901L1600 901L1600 773L1575.8 777.5C1551.7 782 1503.3 791 1454.8 782C1406.3 773 1357.7 746 1309.2 734C1260.7 722 1212.3 725 1163.8 743C1115.3 761 1066.7 794 1018.2 792.5C969.7 791 921.3 755 872.8 741.5C824.3 728 775.7 737 727.2 756.5C678.7 776 630.3 806 581.8 800C533.3 794 484.7 752 436.2 743C387.7 734 339.3 758 290.8 779C242.3 800 193.7 818 145.2 816.5C96.7 815 48.3 794 24.2 783.5L0 773Z" fill="#004cbb"></path></svg>